<?xml version="1.0" encoding="UTF-8" standalone="no"?>
<!DOCTYPE svg PUBLIC "-//W3C//DTD SVG 1.1//EN" "http://www.w3.org/Graphics/SVG/1.1/DTD/svg11.dtd">
<svg width="100%" height="100%" viewBox="0 0 1000 1000" version="1.1" xmlns="http://www.w3.org/2000/svg" xmlns:xlink="http://www.w3.org/1999/xlink" xml:space="preserve" xmlns:serif="http://www.serif.com/" style="fill-rule:evenodd;clip-rule:evenodd;stroke-linejoin:round;stroke-miterlimit:2;">
    <g transform="matrix(0.816036,0,0,0.816036,500,500)">
        <g transform="matrix(1,0,0,1,-382.086,-286.284)">
            <clipPath id="_clip1">
                <rect x="0" y="0" width="764.173" height="572.568"/>
            </clipPath>
            <g clip-path="url(#_clip1)">
                <g transform="matrix(1,0,0,1,-217.914,-163.716)">
                    <path d="M949.086,695.284L373.914,695.284C355.818,695.264 340.934,680.38 340.914,662.284L340.914,355.284C340.934,337.188 355.818,322.304 373.914,322.284L949.086,322.284C967.182,322.304 982.066,337.188 982.086,355.284L982.086,662.284C982.066,680.38 967.182,695.264 949.086,695.284Z" style="fill:white;fill-rule:nonzero;"/>
                </g>
                <g transform="matrix(1,0,0,1,-217.914,-163.716)">
                    <path d="M949.086,695.284L373.914,695.284C355.818,695.264 340.934,680.38 340.914,662.284L340.914,355.284C340.934,337.188 355.818,322.304 373.914,322.284L949.086,322.284C967.182,322.304 982.066,337.188 982.086,355.284L982.086,662.284C982.066,680.38 967.182,695.264 949.086,695.284ZM373.914,324.284C356.915,324.303 342.933,338.285 342.914,355.284L342.914,662.284C342.933,679.283 356.915,693.265 373.914,693.284L949.086,693.284C966.085,693.265 980.067,679.283 980.086,662.284L980.086,355.284C980.067,338.285 966.085,324.303 949.086,324.284L373.914,324.284Z" style="fill:rgb(242,242,242);fill-rule:nonzero;"/>
                </g>
                <g transform="matrix(1,0,0,1,-217.914,-163.716)">
                    <path d="M949.086,671.284L373.914,671.284C368.978,671.278 364.919,667.219 364.914,662.284L364.914,355.284C364.919,350.349 368.978,346.29 373.914,346.284L949.086,346.284C954.022,346.29 958.081,350.349 958.086,355.284L958.086,662.284C958.081,667.219 954.022,671.278 949.086,671.284ZM373.914,348.284C370.075,348.288 366.918,351.446 366.914,355.284L366.914,662.284C366.918,666.122 370.075,669.28 373.914,669.284L949.086,669.284C952.925,669.28 956.082,666.122 956.086,662.284L956.086,355.284C956.082,351.446 952.925,348.288 949.086,348.284L373.914,348.284Z" style="fill:rgb(242,242,242);fill-rule:nonzero;"/>
                </g>
                <g transform="matrix(1,0,0,1,-217.914,-163.716)">
                    <path d="M802.698,672.747L246.727,525.369C229.241,520.713 218.668,502.512 223.285,485.015L301.948,188.264C306.604,170.778 324.805,160.205 342.302,164.821L898.273,312.199C915.759,316.855 926.332,335.056 921.715,352.553L843.052,649.304C838.396,666.79 820.195,677.363 802.698,672.747Z" style="fill:rgb(242,242,242);fill-rule:nonzero;"/>
                </g>
                <g transform="matrix(1,0,0,1,-217.914,-163.716)">
                    <path d="M802.698,672.747L246.727,525.369C229.241,520.713 218.668,502.512 223.285,485.015L301.948,188.264C306.604,170.778 324.805,160.205 342.302,164.821L898.273,312.199C915.759,316.855 926.332,335.056 921.715,352.553L843.052,649.304C838.396,666.79 820.195,677.363 802.698,672.747ZM341.789,166.755C325.353,162.418 308.255,172.35 303.881,188.777L225.218,485.528C220.881,501.964 230.813,519.062 247.24,523.436L803.211,670.813C819.647,675.15 836.745,665.218 841.119,648.791L919.782,352.04C924.119,335.604 914.187,318.506 897.76,314.132L341.789,166.755Z" style="fill:rgb(230,230,230);fill-rule:nonzero;"/>
                </g>
                <g transform="matrix(1,0,0,1,-217.914,-163.716)">
                    <path d="M808.848,649.548L252.877,502.17C248.108,500.9 245.224,495.936 246.483,491.165L325.147,194.414C326.417,189.645 331.38,186.761 336.152,188.02L892.123,335.398C896.892,336.668 899.776,341.632 898.517,346.403L819.853,643.154C818.583,647.923 813.62,650.807 808.848,649.548ZM335.64,189.953C331.928,188.974 328.067,191.217 327.08,194.926L248.417,491.677C247.437,495.388 249.68,499.249 253.389,500.237L809.36,647.615C813.072,648.594 816.933,646.351 817.92,642.642L896.583,345.891C897.563,342.18 895.32,338.319 891.611,337.331L335.64,189.953Z" style="fill:white;fill-rule:nonzero;"/>
                </g>
                <g transform="matrix(1,0,0,1,-217.914,-163.716)">
                    <path d="M826.086,736.284L250.914,736.284C232.818,736.264 217.934,721.38 217.914,703.284L217.914,396.284C217.934,378.188 232.818,363.304 250.914,363.284L826.086,363.284C844.182,363.304 859.066,378.188 859.086,396.284L859.086,703.284C859.066,721.38 844.182,736.264 826.086,736.284Z" style="fill:white;fill-rule:nonzero;"/>
                </g>
                <g transform="matrix(1,0,0,1,-217.914,-163.716)">
                    <path d="M669.818,710.284L298.388,710.284C297.923,710.286 297.458,710.274 297,710.248L472.669,611.315C476.014,609.392 483.519,608.716 489.431,609.803C491.052,610.053 492.622,610.563 494.08,611.315L611.976,677.707L617.624,680.884L669.818,710.284Z" style="fill:rgb(230,230,230);fill-rule:nonzero;"/>
                </g>
                <g transform="matrix(1,0,0,1,-217.914,-163.716)">
                    <path d="M787,710.284L465.744,710.284L527.997,680.884L532.477,678.766L613.598,640.451C618.916,637.94 631.711,637.784 637.964,639.978C638.384,640.127 638.773,640.285 639.132,640.451L787,710.284Z" style="fill:rgb(230,230,230);fill-rule:nonzero;"/>
                </g>
                <g transform="matrix(1,0,0,1,-217.914,-163.716)">
                    <path d="M250.914,365.284C233.915,365.303 219.933,379.285 219.914,396.284L219.914,703.284C219.933,720.283 233.915,734.265 250.914,734.284L826.086,734.284C843.085,734.265 857.067,720.283 857.086,703.284L857.086,396.284C857.067,379.285 843.085,365.303 826.086,365.284L250.914,365.284Z" style="fill:rgb(63,61,86);fill-rule:nonzero;"/>
                </g>
                <g transform="matrix(1,0,0,1,-217.914,-163.716)">
                    <path d="M826.086,712.284L250.914,712.284C245.978,712.278 241.919,708.219 241.914,703.284L241.914,396.284C241.919,391.349 245.978,387.29 250.914,387.284L826.086,387.284C831.022,387.29 835.081,391.349 835.086,396.284L835.086,703.284C835.081,708.219 831.022,712.278 826.086,712.284ZM250.914,389.284C247.075,389.288 243.918,392.446 243.914,396.284L243.914,703.284C243.918,707.122 247.075,710.28 250.914,710.284L826.086,710.284C829.925,710.28 833.082,707.122 833.086,703.284L833.086,396.284C833.082,392.446 829.925,389.288 826.086,389.284L250.914,389.284Z" style="fill:rgb(204,204,204);fill-rule:nonzero;"/>
                </g>
                <circle cx="480.017" cy="217.859" r="61.903" style="fill:rgb(255,101,132);"/>
                <ellipse cx="505.896" cy="345.099" rx="78.403" ry="98.137" style="fill:rgb(242,242,242);"/>
                <path d="M506.112,325.365L506.327,325.365L510.204,547.65L502.019,547.65L506.112,325.365Z" style="fill:rgb(204,204,204);fill-rule:nonzero;"/>
                <g transform="matrix(1,0,0,1,-217.914,-163.716)">
                    <path d="M737.398,636.241C737.893,637.182 737.527,638.364 736.586,638.859L725.341,644.78L723.534,641.349L734.779,635.429C735.72,634.933 736.902,635.3 737.398,636.241Z" style="fill:rgb(204,204,204);fill-rule:nonzero;"/>
                </g>
                <ellipse cx="280.49" cy="345.099" rx="78.403" ry="98.137" style="fill:rgb(242,242,242);"/>
                <g transform="matrix(1,0,0,1,-217.914,-163.716)">
                    <path d="M511.991,639.916L511.991,639.916C511.496,638.975 510.314,638.608 509.373,639.104L501.522,643.237L498.834,489.081L498.618,489.081L494.526,711.367L502.711,711.367L501.598,647.579L511.179,642.534C512.12,642.039 512.486,640.857 511.991,639.916Z" style="fill:rgb(204,204,204);fill-rule:nonzero;"/>
                </g>
                <g transform="matrix(1,0,0,1,-217.914,-163.716)">
                    <path d="M610.834,282.653C665.7,282.653 710.296,386.035 710.296,454.712C710.296,523.389 665.818,579.062 610.951,579.062C556.084,579.062 511.606,523.389 511.606,454.712C511.606,386.035 555.967,282.653 610.834,282.653Z" style="fill:rgb(22,163,73);fill-rule:nonzero;"/>
                </g>
                <g transform="matrix(1,0,0,1,-217.914,-163.716)">
                    <path d="M628.168,619.831C627.744,619.025 626.906,618.519 625.995,618.519C625.596,618.519 625.204,618.616 624.851,618.802L614.903,624.039L611.497,428.707L611.224,428.707L606.039,710.367L616.41,710.367L615,629.54L627.139,623.149C627.945,622.725 628.451,621.886 628.451,620.976C628.451,620.577 628.354,620.184 628.168,619.831Z" style="fill:rgb(63,61,86);fill-rule:nonzero;"/>
                </g>
                <g transform="matrix(1,0,0,1,-217.914,-163.716)">
                    <path d="M828.086,734.284L252.914,734.284C234.818,734.264 219.934,719.38 219.914,701.284L219.914,394.284C219.934,376.188 234.818,361.304 252.914,361.284L828.086,361.284C846.182,361.304 861.066,376.188 861.086,394.284L861.086,701.284C861.066,719.38 846.182,734.264 828.086,734.284Z" style="fill:white;fill-rule:nonzero;"/>
                </g>
                <g transform="matrix(1,0,0,1,-217.914,-163.716)">
                    <path d="M671.818,708.284L300.388,708.284C299.923,708.286 299.458,708.274 299,708.248L474.669,609.315C478.014,607.392 485.519,606.716 491.431,607.803C493.052,608.053 494.622,608.563 496.08,609.315L613.976,675.707L619.624,678.884L671.818,708.284Z" style="fill:rgb(230,230,230);fill-rule:nonzero;"/>
                </g>
                <g transform="matrix(1,0,0,1,-217.914,-163.716)">
                    <path d="M789,708.284L467.744,708.284L529.997,678.884L534.477,676.766L615.598,638.451C620.916,635.94 633.711,635.784 639.964,637.978C640.384,638.127 640.773,638.285 641.132,638.451L789,708.284Z" style="fill:rgb(230,230,230);fill-rule:nonzero;"/>
                </g>
                <g transform="matrix(1,0,0,1,-217.914,-163.716)">
                    <path d="M828.086,734.284L252.914,734.284C234.818,734.264 219.934,719.38 219.914,701.284L219.914,394.284C219.934,376.188 234.818,361.304 252.914,361.284L828.086,361.284C846.182,361.304 861.066,376.188 861.086,394.284L861.086,701.284C861.066,719.38 846.182,734.264 828.086,734.284ZM252.914,363.284C235.915,363.303 221.933,377.285 221.914,394.284L221.914,701.284C221.933,718.283 235.915,732.265 252.914,732.284L828.086,732.284C845.085,732.265 859.067,718.283 859.086,701.284L859.086,394.284C859.067,377.285 845.085,363.303 828.086,363.284L252.914,363.284Z" style="fill:rgb(63,61,86);fill-rule:nonzero;"/>
                </g>
                <g transform="matrix(1,0,0,1,-217.914,-163.716)">
                    <path d="M828.086,710.284L252.914,710.284C247.978,710.278 243.919,706.219 243.914,701.284L243.914,394.284C243.919,389.349 247.978,385.29 252.914,385.284L828.086,385.284C833.022,385.29 837.081,389.349 837.086,394.284L837.086,701.284C837.081,706.219 833.022,710.278 828.086,710.284ZM252.914,387.284C249.075,387.288 245.918,390.446 245.914,394.284L245.914,701.284C245.918,705.122 249.075,708.28 252.914,708.284L828.086,708.284C831.925,708.28 835.082,705.122 835.086,701.284L835.086,394.284C835.082,390.446 831.925,387.288 828.086,387.284L252.914,387.284Z" style="fill:rgb(204,204,204);fill-rule:nonzero;"/>
                </g>
                <circle cx="482.017" cy="215.859" r="61.903" style="fill:rgb(255,101,132);"/>
                <ellipse cx="507.896" cy="343.099" rx="78.403" ry="98.137" style="fill:rgb(242,242,242);"/>
                <path d="M508.112,323.365L508.327,323.365L512.204,545.65L504.019,545.65L508.112,323.365Z" style="fill:rgb(204,204,204);fill-rule:nonzero;"/>
                <g transform="matrix(1,0,0,1,-217.914,-163.716)">
                    <path d="M739.398,634.241C739.893,635.182 739.527,636.364 738.586,636.859L727.341,642.78L725.534,639.349L736.779,633.429C737.72,632.933 738.902,633.3 739.398,634.241Z" style="fill:rgb(204,204,204);fill-rule:nonzero;"/>
                </g>
                <ellipse cx="282.49" cy="343.099" rx="78.403" ry="98.137" style="fill:rgb(242,242,242);"/>
                <g transform="matrix(1,0,0,1,-217.914,-163.716)">
                    <path d="M513.991,637.916L513.991,637.916C513.496,636.975 512.314,636.608 511.373,637.104L503.522,641.237L500.834,487.081L500.618,487.081L496.526,709.367L504.711,709.367L503.598,645.579L513.179,640.534C514.12,640.039 514.486,638.857 513.991,637.916Z" style="fill:rgb(204,204,204);fill-rule:nonzero;"/>
                </g>
                <g transform="matrix(1,0,0,1,-217.914,-163.716)">
                    <path d="M612.834,280.653C667.7,280.653 712.296,384.035 712.296,452.712C712.296,521.389 667.818,577.062 612.951,577.062C558.084,577.062 513.606,521.389 513.606,452.712C513.606,384.035 557.967,280.653 612.834,280.653Z" style="fill:rgb(22,163,73);fill-rule:nonzero;"/>
                </g>
                <g transform="matrix(1,0,0,1,-217.914,-163.716)">
                    <path d="M630.168,617.831C629.744,617.025 628.906,616.519 627.995,616.519C627.596,616.519 627.204,616.616 626.851,616.802L616.903,622.039L613.497,426.707L613.224,426.707L608.039,708.367L618.41,708.367L617,627.54L629.139,621.149C629.945,620.725 630.451,619.886 630.451,618.976C630.451,618.577 630.354,618.184 630.168,617.831Z" style="fill:rgb(63,61,86);fill-rule:nonzero;"/>
                </g>
            </g>
        </g>
    </g>
</svg>
